<svg id="Layer_1" data-name="Layer 1" xmlns="http://www.w3.org/2000/svg" viewBox="0 0 522.13 467.51"><defs><style>.cls-1{fill:#3c6e71;}.cls-1,.cls-3{stroke:#000;}.cls-1,.cls-2,.cls-3{stroke-miterlimit:10;}.cls-2{stroke:#3c6e71;}.cls-3{fill:none;stroke-width:14px;}.cls-4{fill:#d9534f;}.cls-5{fill:#5cb85c;}.cls-6{fill:#beee62;}</style></defs><title>kelepirBorsa_logo</title><polygon class="cls-1" points="0.57 467.01 521.57 467.01 482.57 118.01 48.57 115.01 0.57 467.01"/><circle class="cls-2" cx="178.57" cy="138.01" r="12"/><circle class="cls-2" cx="346.57" cy="138.01" r="12"/><path class="cls-3" d="M217.5,231.5s-17-132,87-131c94.75.91,83.24,111.39,81.33,131-.19,1.92-.33,3-.33,3" transform="translate(-38.93 -93.49)"/><path class="cls-4" d="M262,433V545c0,15.44,24,15.47,24,0V433c0-15.44-24-15.47-24,0Z" transform="translate(-38.93 -93.49)"/><path class="cls-5" d="M198,350V492c0,15.44,24,15.47,24,0V350c0-15.44-24-15.47-24,0Z" transform="translate(-38.93 -93.49)"/><path class="cls-4" d="M230,386V528c0,15.44,24,15.47,24,0V386c0-15.44-24-15.47-24,0Z" transform="translate(-38.93 -93.49)"/><path class="cls-5" d="M166,372V514c0,15.44,24,15.47,24,0V372c0-15.44-24-15.47-24,0Z" transform="translate(-38.93 -93.49)"/><path class="cls-5" d="M134,395V537c0,15.44,24,15.47,24,0V395c0-15.44-24-15.47-24,0Z" transform="translate(-38.93 -93.49)"/><path class="cls-5" d="M102,424V546c0,15.44,24,15.47,24,0V424c0-15.44-24-15.47-24,0Z" transform="translate(-38.93 -93.49)"/><path class="cls-5" d="M70,454v92c0,15.44,24,15.47,24,0V454c0-15.44-24-15.47-24,0Z" transform="translate(-38.93 -93.49)"/><path class="cls-5" d="M294,419V541c0,15.44,24,15.47,24,0V419c0-15.44-24-15.47-24,0Z" transform="translate(-38.93 -93.49)"/><path class="cls-5" d="M326,397V539c0,15.44,24,15.47,24,0V397c0-15.44-24-15.47-24,0Z" transform="translate(-38.93 -93.49)"/><path class="cls-5" d="M358,368V510c0,15.44,24,15.47,24,0V368c0-15.44-24-15.47-24,0Z" transform="translate(-38.93 -93.49)"/><path class="cls-5" d="M390,340V482c0,15.44,24,15.47,24,0V340c0-15.44-24-15.47-24,0Z" transform="translate(-38.93 -93.49)"/><path class="cls-5" d="M422,311V453c0,15.44,24,15.47,24,0V311c0-15.44-24-15.47-24,0Z" transform="translate(-38.93 -93.49)"/><path class="cls-6" d="M67.06,528.36l51.17-38.63,81.11-61.23,18.72-14.14-16.42-4.3,52.5,91,7.5,13c4.16,7.22,13,7.22,18.85,2.43L363,448.87,494.4,341.14l30.09-24.65c5-4.12,4.26-12.71,0-17-5-5-12-4.12-17,0L425,367.13,293.6,474.86l-30.09,24.65,18.85,2.43-52.5-91-7.5-13c-3-5.13-11.24-8.21-16.42-4.3l-51.17,38.63L73.66,493.5,54.94,507.64c-5.16,3.9-7.85,10.36-4.3,16.42,3,5.08,11.21,8.23,16.42,4.3Z" transform="translate(-38.93 -93.49)"/></svg>